# Blender3D v249 OBJ File: 
# www.blender3d.org
mtllib l7.mtl
v -0.028280 0.000000 0.028280
v -0.022220 0.000000 0.033260
v -0.015310 0.000000 0.036960
v -0.007800 0.000000 0.039230
v 0.000000 0.000000 0.040000
v 0.007800 0.000000 0.039230
v 0.015310 0.000000 0.036960
v 0.022220 0.000000 0.033260
v 0.028280 0.000000 0.028280
v 0.033260 0.000000 0.022220
v 0.036960 0.000000 0.015310
v 0.039230 0.000000 0.007800
v 0.040000 0.000000 -0.000000
v 0.039230 -0.000000 -0.007800
v 0.036960 -0.000000 -0.015310
v 0.033260 -0.000000 -0.022220
v 0.028280 -0.000000 -0.028280
v 0.022220 -0.000000 -0.033260
v 0.015310 -0.000000 -0.036960
v 0.007800 -0.000000 -0.039230
v 0.000000 -0.000000 -0.040000
v -0.007800 -0.000000 -0.039230
v -0.015310 -0.000000 -0.036960
v -0.022220 -0.000000 -0.033260
v -0.028280 -0.000000 -0.028280
v -0.033260 -0.000000 -0.022220
v -0.036960 -0.000000 -0.015310
v -0.039230 -0.000000 -0.007800
v -0.040000 0.000000 -0.000000
v -0.039230 0.000000 0.007800
v -0.036960 0.000000 0.015310
v -0.033260 0.000000 0.022220
v -0.020900 -0.020000 0.020900
v -0.016420 -0.020000 0.024580
v -0.011310 -0.020000 0.027310
v -0.005770 -0.020000 0.028990
v 0.000000 -0.020000 0.029560
v 0.005770 -0.020000 0.028990
v 0.011310 -0.020000 0.027310
v 0.016420 -0.020000 0.024580
v 0.020900 -0.020000 0.020900
v 0.024580 -0.020000 0.016420
v 0.027310 -0.020000 0.011310
v 0.028990 -0.020000 0.005770
v 0.029560 -0.020000 0.000000
v 0.028990 -0.020000 -0.005770
v 0.027310 -0.020000 -0.011310
v 0.024580 -0.020000 -0.016420
v 0.020900 -0.020000 -0.020900
v 0.016420 -0.020000 -0.024580
v 0.011310 -0.020000 -0.027310
v 0.005770 -0.020000 -0.028990
v 0.000000 -0.020000 -0.029560
v -0.005770 -0.020000 -0.028990
v -0.011310 -0.020000 -0.027310
v -0.016420 -0.020000 -0.024580
v -0.020900 -0.020000 -0.020900
v -0.024580 -0.020000 -0.016420
v -0.027310 -0.020000 -0.011310
v -0.028990 -0.020000 -0.005770
v -0.029560 -0.020000 0.000000
v -0.028990 -0.020000 0.005770
v -0.027310 -0.020000 0.011310
v -0.024580 -0.020000 0.016420
vn -0.563300 -0.460902 0.685757
vn -0.563428 -0.460952 0.685618
vn -0.418165 -0.460967 0.782718
vn -0.418845 -0.461191 0.782222
vn -0.257493 -0.461196 0.849114
vn -0.256759 -0.460981 0.849453
vn -0.087239 -0.461002 0.883100
vn -0.087179 -0.460986 0.883115
vn 0.087240 -0.460983 0.883110
vn 0.087178 -0.461000 0.883108
vn 0.257530 -0.460949 0.849237
vn 0.256732 -0.461164 0.849363
vn 0.418102 -0.461225 0.782600
vn 0.418892 -0.461001 0.782309
vn 0.563281 -0.460960 0.685734
vn 0.563442 -0.460909 0.685635
vn 0.685757 -0.460902 0.563300
vn 0.685618 -0.460952 0.563428
vn 0.782718 -0.460967 0.418165
vn 0.782222 -0.461191 0.418845
vn 0.849114 -0.461196 0.257493
vn 0.849453 -0.460981 0.256759
vn 0.883101 -0.461002 0.087239
vn 0.883115 -0.460986 0.087179
vn 0.883110 -0.460983 -0.087240
vn 0.883108 -0.461000 -0.087178
vn 0.849237 -0.460949 -0.257530
vn 0.849363 -0.461164 -0.256732
vn 0.782600 -0.461225 -0.418101
vn 0.782309 -0.461001 -0.418892
vn 0.685733 -0.460960 -0.563281
vn 0.685635 -0.460910 -0.563443
vn 0.563300 -0.460902 -0.685757
vn 0.563428 -0.460952 -0.685618
vn 0.418165 -0.460967 -0.782718
vn 0.418845 -0.461191 -0.782222
vn 0.257493 -0.461196 -0.849114
vn 0.256759 -0.460981 -0.849453
vn 0.087239 -0.461002 -0.883100
vn 0.087179 -0.460986 -0.883115
vn -0.087240 -0.460983 -0.883110
vn -0.087178 -0.461000 -0.883108
vn -0.257530 -0.460949 -0.849237
vn -0.256732 -0.461164 -0.849363
vn -0.418102 -0.461225 -0.782600
vn -0.418892 -0.461001 -0.782309
vn -0.563281 -0.460960 -0.685733
vn -0.563443 -0.460910 -0.685635
vn -0.685757 -0.460902 -0.563300
vn -0.685618 -0.460952 -0.563428
vn -0.782718 -0.460967 -0.418165
vn -0.782222 -0.461191 -0.418845
vn -0.849114 -0.461196 -0.257493
vn -0.849453 -0.460981 -0.256759
vn -0.883100 -0.461002 -0.087239
vn -0.883115 -0.460986 -0.087179
vn -0.883110 -0.460983 0.087240
vn -0.883108 -0.461000 0.087178
vn -0.849237 -0.460949 0.257530
vn -0.849363 -0.461164 0.256732
vn -0.782600 -0.461225 0.418102
vn -0.782309 -0.461001 0.418892
vn -0.685635 -0.460909 0.563443
vn -0.685734 -0.460960 0.563281
usemtl default.001
s off
f 34//1 1//1 33//1
f 1//2 34//2 2//2
f 35//3 2//3 34//3
f 2//4 35//4 3//4
f 36//5 3//5 35//5
f 3//6 36//6 4//6
f 37//7 4//7 36//7
f 4//8 37//8 5//8
f 38//9 5//9 37//9
f 5//10 38//10 6//10
f 39//11 6//11 38//11
f 6//12 39//12 7//12
f 40//13 7//13 39//13
f 7//14 40//14 8//14
f 41//15 8//15 40//15
f 8//16 41//16 9//16
f 42//17 9//17 41//17
f 9//18 42//18 10//18
f 43//19 10//19 42//19
f 10//20 43//20 11//20
f 44//21 11//21 43//21
f 11//22 44//22 12//22
f 45//23 12//23 44//23
f 12//24 45//24 13//24
f 46//25 13//25 45//25
f 13//26 46//26 14//26
f 47//27 14//27 46//27
f 14//28 47//28 15//28
f 48//29 15//29 47//29
f 15//30 48//30 16//30
f 49//31 16//31 48//31
f 16//32 49//32 17//32
f 50//33 17//33 49//33
f 17//34 50//34 18//34
f 51//35 18//35 50//35
f 18//36 51//36 19//36
f 52//37 19//37 51//37
f 19//38 52//38 20//38
f 53//39 20//39 52//39
f 20//40 53//40 21//40
f 54//41 21//41 53//41
f 21//42 54//42 22//42
f 55//43 22//43 54//43
f 22//44 55//44 23//44
f 56//45 23//45 55//45
f 23//46 56//46 24//46
f 57//47 24//47 56//47
f 24//48 57//48 25//48
f 58//49 25//49 57//49
f 25//50 58//50 26//50
f 59//51 26//51 58//51
f 26//52 59//52 27//52
f 60//53 27//53 59//53
f 27//54 60//54 28//54
f 61//55 28//55 60//55
f 28//56 61//56 29//56
f 62//57 29//57 61//57
f 29//58 62//58 30//58
f 63//59 30//59 62//59
f 30//60 63//60 31//60
f 64//61 31//61 63//61
f 31//62 64//62 32//62
f 33//63 1//63 32//63
f 33//64 32//64 64//64
